<svg id="svg" version="1.1" xmlns="http://www.w3.org/2000/svg" xmlns:xlink="http://www.w3.org/1999/xlink" width="400" height="400" viewBox="0, 0, 400,400"><g id="svgg"><path id="path0" d="M368.400 115.600 C 368.400 158.533,368.265 180.400,368.000 180.400 C 367.780 180.400,367.600 180.040,367.600 179.600 C 367.600 179.160,367.420 178.800,367.200 178.800 C 366.980 178.800,366.800 178.440,366.800 178.000 C 366.800 177.560,366.620 177.200,366.400 177.200 C 366.180 177.200,366.000 176.840,366.000 176.400 C 366.000 175.960,365.850 175.600,365.668 175.600 C 365.485 175.600,365.081 175.105,364.770 174.500 C 364.460 173.895,363.889 173.109,363.503 172.753 C 363.116 172.397,362.800 171.884,362.800 171.614 C 362.800 171.343,362.260 170.617,361.600 170.000 C 360.940 169.383,360.400 168.687,360.400 168.451 C 360.400 167.893,350.507 158.000,349.949 158.000 C 349.713 158.000,349.017 157.460,348.400 156.800 C 347.783 156.140,347.126 155.600,346.940 155.599 C 346.753 155.599,345.970 155.059,345.200 154.400 C 344.430 153.741,343.657 153.201,343.483 153.201 C 343.309 153.200,342.780 152.840,342.308 152.400 C 341.836 151.960,341.213 151.600,340.925 151.600 C 340.636 151.600,340.400 151.420,340.400 151.200 C 340.400 150.980,340.040 150.800,339.600 150.800 C 339.160 150.800,338.800 150.620,338.800 150.400 C 338.800 150.180,338.564 150.000,338.275 150.000 C 337.987 150.000,337.364 149.640,336.892 149.200 C 336.420 148.760,335.756 148.400,335.417 148.400 C 335.078 148.400,334.800 148.220,334.800 148.000 C 334.800 147.780,334.535 147.600,334.212 147.600 C 333.889 147.600,332.983 147.240,332.200 146.800 C 331.417 146.360,330.421 146.000,329.988 146.000 C 329.555 146.000,329.200 145.820,329.200 145.600 C 329.200 145.380,328.851 145.200,328.424 145.200 C 327.997 145.200,327.536 145.020,327.400 144.800 C 327.264 144.580,326.713 144.400,326.176 144.400 C 325.639 144.400,325.200 144.220,325.200 144.000 C 325.200 143.780,324.660 143.600,324.000 143.600 C 323.340 143.600,322.800 143.420,322.800 143.200 C 322.800 142.980,322.271 142.800,321.624 142.800 C 320.977 142.800,320.336 142.620,320.200 142.400 C 320.064 142.180,319.333 142.000,318.576 142.000 C 317.819 142.000,317.200 141.820,317.200 141.600 C 317.200 141.380,316.401 141.200,315.424 141.200 C 314.447 141.200,313.536 141.020,313.400 140.800 C 313.264 140.580,312.274 140.400,311.200 140.400 C 310.126 140.400,309.136 140.220,309.000 140.000 C 308.864 139.780,307.424 139.600,305.800 139.600 C 304.176 139.600,302.736 139.420,302.600 139.200 C 302.444 138.948,298.004 138.800,290.600 138.800 C 283.196 138.800,278.756 138.948,278.600 139.200 C 278.464 139.420,277.024 139.600,275.400 139.600 C 273.776 139.600,272.336 139.780,272.200 140.000 C 272.064 140.220,270.973 140.400,269.776 140.400 C 268.579 140.400,267.600 140.580,267.600 140.800 C 267.600 141.020,266.700 141.200,265.600 141.200 C 264.500 141.200,263.600 141.380,263.600 141.600 C 263.600 141.820,262.880 142.000,262.000 142.000 C 261.120 142.000,260.400 142.180,260.400 142.400 C 260.400 142.620,259.680 142.800,258.800 142.800 C 257.920 142.800,257.200 142.980,257.200 143.200 C 257.200 143.420,256.660 143.600,256.000 143.600 C 255.340 143.600,254.800 143.780,254.800 144.000 C 254.800 144.220,254.271 144.400,253.624 144.400 C 252.977 144.400,252.336 144.580,252.200 144.800 C 252.064 145.020,251.513 145.200,250.976 145.200 C 250.439 145.200,250.000 145.380,250.000 145.600 C 250.000 145.820,249.460 146.000,248.800 146.000 C 248.140 146.000,247.600 146.180,247.600 146.400 C 247.600 146.620,247.251 146.800,246.824 146.800 C 246.397 146.800,245.936 146.980,245.800 147.200 C 245.664 147.420,245.113 147.600,244.576 147.600 C 244.039 147.600,243.600 147.780,243.600 148.000 C 243.600 148.220,243.240 148.400,242.800 148.400 C 242.360 148.400,242.000 148.580,242.000 148.800 C 242.000 149.020,241.640 149.200,241.200 149.200 C 240.760 149.200,240.400 149.380,240.400 149.600 C 240.400 149.820,240.040 150.000,239.600 150.000 C 239.160 150.000,238.800 150.180,238.800 150.400 C 238.800 150.620,238.440 150.800,238.000 150.800 C 237.560 150.800,237.200 150.980,237.200 151.200 C 237.200 151.420,236.840 151.600,236.400 151.600 C 235.960 151.600,235.600 151.780,235.600 152.000 C 235.600 152.220,235.240 152.400,234.800 152.400 C 234.360 152.400,234.000 152.580,234.000 152.800 C 234.000 153.020,233.722 153.200,233.383 153.200 C 233.044 153.200,232.380 153.560,231.908 154.000 C 231.436 154.440,230.813 154.800,230.525 154.800 C 230.236 154.800,230.000 154.980,230.000 155.200 C 230.000 155.420,229.764 155.600,229.475 155.600 C 229.187 155.600,228.564 155.960,228.092 156.400 C 227.620 156.840,227.091 157.200,226.917 157.201 C 226.743 157.201,225.970 157.741,225.200 158.400 C 224.430 159.059,223.663 159.599,223.496 159.599 C 223.329 159.600,222.628 160.140,221.937 160.800 C 221.246 161.460,220.531 162.000,220.347 162.000 C 219.396 162.000,206.000 175.511,206.000 176.470 C 206.000 176.656,205.460 177.372,204.800 178.063 C 204.140 178.754,203.600 179.562,203.600 179.859 C 203.600 180.157,203.450 180.400,203.268 180.400 C 203.085 180.400,202.680 180.895,202.368 181.500 C 202.055 182.105,201.485 182.949,201.100 183.375 C 200.715 183.802,200.400 184.387,200.400 184.675 C 200.400 184.964,200.220 185.200,200.000 185.200 C 199.780 185.200,199.600 185.560,199.600 186.000 C 199.600 186.440,199.464 186.800,199.298 186.800 C 198.764 186.800,197.974 189.062,198.234 189.844 C 198.373 190.260,198.900 191.500,199.405 192.600 C 201.463 197.077,201.987 198.380,203.351 202.400 C 204.941 207.087,205.888 210.418,206.476 213.400 C 206.693 214.500,207.037 216.210,207.240 217.200 C 207.804 219.947,208.405 224.212,208.790 228.200 C 209.198 232.434,209.106 232.000,209.600 232.000 C 209.820 232.000,210.000 231.370,210.000 230.600 C 210.000 229.830,210.180 229.200,210.400 229.200 C 210.633 229.200,210.800 227.867,210.800 226.000 C 210.800 224.133,210.967 222.800,211.200 222.800 C 211.420 222.800,211.600 221.911,211.600 220.824 C 211.600 219.737,211.780 218.736,212.000 218.600 C 212.220 218.464,212.400 217.553,212.400 216.576 C 212.400 215.599,212.580 214.800,212.800 214.800 C 213.020 214.800,213.200 214.271,213.200 213.624 C 213.200 212.977,213.380 212.336,213.600 212.200 C 213.820 212.064,214.000 211.333,214.000 210.576 C 214.000 209.819,214.180 209.200,214.400 209.200 C 214.620 209.200,214.800 208.851,214.800 208.424 C 214.800 207.997,214.980 207.536,215.200 207.400 C 215.420 207.264,215.600 206.713,215.600 206.176 C 215.600 205.639,215.780 205.200,216.000 205.200 C 216.220 205.200,216.400 204.928,216.400 204.595 C 216.400 204.262,216.580 203.632,216.800 203.195 C 217.020 202.758,217.380 202.042,217.600 201.605 C 217.820 201.168,218.000 200.538,218.000 200.205 C 218.000 199.872,218.180 199.600,218.400 199.600 C 218.620 199.600,218.800 199.364,218.800 199.075 C 218.800 198.787,219.160 198.164,219.600 197.692 C 220.040 197.220,220.400 196.556,220.400 196.217 C 220.400 195.878,220.580 195.600,220.800 195.600 C 221.020 195.600,221.200 195.280,221.200 194.888 C 221.200 194.497,221.560 193.917,222.000 193.600 C 222.440 193.283,222.800 192.791,222.800 192.508 C 222.800 192.225,223.340 191.428,224.000 190.737 C 224.660 190.046,225.200 189.310,225.200 189.101 C 225.200 188.892,225.702 188.244,226.315 187.660 C 226.929 187.077,227.869 185.970,228.404 185.200 C 229.557 183.540,235.125 178.000,235.641 178.000 C 235.838 178.000,236.741 177.280,237.648 176.400 C 238.555 175.520,239.479 174.800,239.701 174.800 C 239.924 174.800,240.397 174.484,240.753 174.097 C 241.109 173.711,241.895 173.140,242.500 172.830 C 243.105 172.519,243.600 172.115,243.600 171.932 C 243.600 171.750,243.878 171.600,244.217 171.600 C 244.556 171.600,245.220 171.240,245.692 170.800 C 246.164 170.360,246.787 170.000,247.075 170.000 C 247.364 170.000,247.600 169.820,247.600 169.600 C 247.600 169.380,247.960 169.200,248.400 169.200 C 248.840 169.200,249.200 169.020,249.200 168.800 C 249.200 168.580,249.560 168.400,250.000 168.400 C 250.440 168.400,250.800 168.220,250.800 168.000 C 250.800 167.780,251.160 167.600,251.600 167.600 C 252.040 167.600,252.400 167.420,252.400 167.200 C 252.400 166.980,252.839 166.800,253.376 166.800 C 253.913 166.800,254.464 166.620,254.600 166.400 C 254.736 166.180,255.197 166.000,255.624 166.000 C 256.051 166.000,256.400 165.820,256.400 165.600 C 256.400 165.380,256.839 165.200,257.376 165.200 C 257.913 165.200,258.464 165.020,258.600 164.800 C 258.736 164.580,259.197 164.400,259.624 164.400 C 260.051 164.400,260.400 164.220,260.400 164.000 C 260.400 163.780,261.019 163.600,261.776 163.600 C 262.533 163.600,263.264 163.420,263.400 163.200 C 263.536 162.980,264.177 162.800,264.824 162.800 C 265.471 162.800,266.000 162.620,266.000 162.400 C 266.000 162.180,266.720 162.000,267.600 162.000 C 268.480 162.000,269.200 161.820,269.200 161.600 C 269.200 161.380,269.999 161.200,270.976 161.200 C 271.953 161.200,272.864 161.020,273.000 160.800 C 273.136 160.580,274.317 160.400,275.624 160.400 C 276.941 160.400,278.000 160.222,278.000 160.000 C 278.000 159.756,279.859 159.600,282.776 159.600 C 285.529 159.600,287.658 159.431,287.800 159.200 C 287.936 158.980,289.286 158.800,290.800 158.800 C 292.314 158.800,293.664 158.980,293.800 159.200 C 293.941 159.429,295.996 159.600,298.600 159.600 C 301.204 159.600,303.259 159.771,303.400 160.000 C 303.536 160.220,304.526 160.400,305.600 160.400 C 306.674 160.400,307.664 160.580,307.800 160.800 C 307.936 161.020,308.847 161.200,309.824 161.200 C 310.801 161.200,311.600 161.380,311.600 161.600 C 311.600 161.820,312.320 162.000,313.200 162.000 C 314.080 162.000,314.800 162.180,314.800 162.400 C 314.800 162.620,315.340 162.800,316.000 162.800 C 316.660 162.800,317.200 162.980,317.200 163.200 C 317.200 163.420,317.740 163.600,318.400 163.600 C 319.060 163.600,319.600 163.780,319.600 164.000 C 319.600 164.220,319.949 164.400,320.376 164.400 C 320.803 164.400,321.264 164.580,321.400 164.800 C 321.536 165.020,322.087 165.200,322.624 165.200 C 323.161 165.200,323.600 165.380,323.600 165.600 C 323.600 165.820,323.960 166.000,324.400 166.000 C 324.840 166.000,325.200 166.180,325.200 166.400 C 325.200 166.620,325.560 166.800,326.000 166.800 C 326.440 166.800,326.800 166.980,326.800 167.200 C 326.800 167.420,327.160 167.600,327.600 167.600 C 328.040 167.600,328.400 167.780,328.400 168.000 C 328.400 168.220,328.760 168.400,329.200 168.400 C 329.640 168.400,330.000 168.580,330.000 168.800 C 330.000 169.020,330.360 169.200,330.800 169.200 C 331.240 169.200,331.600 169.380,331.600 169.600 C 331.600 169.820,331.836 170.000,332.125 170.000 C 332.413 170.000,333.036 170.360,333.508 170.800 C 333.980 171.240,334.509 171.600,334.683 171.601 C 334.857 171.601,335.630 172.141,336.400 172.800 C 337.170 173.459,337.941 173.999,338.113 173.999 C 338.286 174.000,339.037 174.611,339.784 175.357 C 340.530 176.103,341.829 177.228,342.670 177.857 C 344.546 179.259,344.738 179.448,346.045 181.200 C 346.619 181.970,347.924 183.484,348.945 184.564 C 349.965 185.644,350.800 186.729,350.800 186.975 C 350.800 187.222,351.160 187.683,351.600 188.000 C 352.040 188.317,352.400 188.773,352.400 189.013 C 352.400 189.253,352.715 189.798,353.100 190.225 C 353.485 190.651,354.055 191.495,354.368 192.100 C 354.680 192.705,355.085 193.200,355.268 193.200 C 355.450 193.200,355.600 193.545,355.600 193.967 C 355.600 194.388,355.737 194.793,355.904 194.867 C 356.312 195.046,359.607 201.667,359.603 202.300 C 359.601 202.575,359.780 202.800,360.000 202.800 C 360.220 202.800,360.400 203.160,360.400 203.600 C 360.400 204.040,360.580 204.400,360.800 204.400 C 361.020 204.400,361.200 204.940,361.200 205.600 C 361.200 206.260,361.380 206.800,361.600 206.800 C 361.820 206.800,362.000 207.340,362.000 208.000 C 362.000 208.660,362.180 209.200,362.400 209.200 C 362.620 209.200,362.800 209.740,362.800 210.400 C 362.800 211.060,362.980 211.600,363.200 211.600 C 363.420 211.600,363.600 212.320,363.600 213.200 C 363.600 214.080,363.780 214.800,364.000 214.800 C 364.220 214.800,364.400 215.520,364.400 216.400 C 364.400 217.280,364.580 218.000,364.800 218.000 C 365.020 218.000,365.200 218.979,365.200 220.176 C 365.200 221.373,365.380 222.464,365.600 222.600 C 365.820 222.736,366.000 223.996,366.000 225.400 C 366.000 226.804,366.180 228.064,366.400 228.200 C 366.654 228.357,366.800 233.596,366.800 242.600 C 366.800 251.604,366.654 256.843,366.400 257.000 C 366.180 257.136,366.000 258.497,366.000 260.024 C 366.000 261.608,365.828 262.800,365.600 262.800 C 365.380 262.800,365.200 263.689,365.200 264.776 C 365.200 265.863,365.020 266.864,364.800 267.000 C 364.580 267.136,364.400 268.047,364.400 269.024 C 364.400 270.001,364.220 270.800,364.000 270.800 C 363.780 270.800,363.600 271.520,363.600 272.400 C 363.600 273.280,363.420 274.000,363.200 274.000 C 362.980 274.000,362.800 274.529,362.800 275.176 C 362.800 275.823,362.620 276.464,362.400 276.600 C 362.180 276.736,362.000 277.276,362.000 277.800 C 362.000 278.324,361.820 278.864,361.600 279.000 C 361.380 279.136,361.200 279.676,361.200 280.200 C 361.200 280.724,361.020 281.264,360.800 281.400 C 360.580 281.536,360.400 282.087,360.400 282.624 C 360.400 283.161,360.220 283.600,360.000 283.600 C 359.780 283.600,359.600 283.872,359.600 284.205 C 359.600 284.538,359.392 285.213,359.138 285.705 C 358.167 287.582,358.000 288.007,358.000 288.595 C 358.000 288.928,357.820 289.200,357.600 289.200 C 357.380 289.200,357.200 289.560,357.200 290.000 C 357.200 290.440,357.020 290.800,356.800 290.800 C 356.580 290.800,356.400 291.078,356.400 291.417 C 356.400 291.756,356.040 292.420,355.600 292.892 C 355.160 293.364,354.800 293.987,354.800 294.275 C 354.800 294.564,354.620 294.800,354.400 294.800 C 354.180 294.800,354.000 295.160,354.000 295.600 C 354.000 296.040,353.850 296.400,353.668 296.400 C 353.485 296.400,353.080 296.895,352.768 297.500 C 352.455 298.105,351.885 298.949,351.500 299.375 C 351.115 299.802,350.800 300.299,350.800 300.479 C 350.800 300.660,350.260 301.372,349.600 302.063 C 348.940 302.754,348.400 303.474,348.400 303.663 C 348.400 304.113,338.513 314.000,338.063 314.000 C 337.874 314.000,337.154 314.540,336.463 315.200 C 335.772 315.860,334.975 316.400,334.692 316.400 C 334.409 316.400,333.917 316.760,333.600 317.200 C 333.283 317.640,332.703 318.000,332.312 318.000 C 331.920 318.000,331.600 318.180,331.600 318.400 C 331.600 318.620,331.240 318.800,330.800 318.800 C 330.360 318.800,330.000 318.959,330.000 319.153 C 330.000 319.348,329.685 319.607,329.300 319.729 C 328.915 319.851,328.060 320.259,327.400 320.636 C 325.486 321.729,324.851 322.000,324.205 322.000 C 323.872 322.000,323.600 322.180,323.600 322.400 C 323.600 322.620,323.251 322.800,322.824 322.800 C 322.397 322.800,321.936 322.980,321.800 323.200 C 321.664 323.420,321.113 323.600,320.576 323.600 C 320.039 323.600,319.600 323.780,319.600 324.000 C 319.600 324.220,319.071 324.400,318.424 324.400 C 317.777 324.400,317.136 324.580,317.000 324.800 C 316.864 325.020,316.133 325.200,315.376 325.200 C 314.619 325.200,314.000 325.380,314.000 325.600 C 314.000 325.820,313.291 326.000,312.424 326.000 C 311.557 326.000,310.736 326.180,310.600 326.400 C 310.464 326.620,309.373 326.800,308.176 326.800 C 306.979 326.800,306.000 326.980,306.000 327.200 C 306.000 327.437,304.541 327.600,302.424 327.600 C 300.457 327.600,298.736 327.780,298.600 328.000 C 298.451 328.240,295.737 328.400,291.800 328.400 C 287.863 328.400,285.149 328.240,285.000 328.000 C 284.864 327.780,283.154 327.600,281.200 327.600 C 279.246 327.600,277.536 327.420,277.400 327.200 C 277.264 326.980,276.274 326.800,275.200 326.800 C 274.126 326.800,273.136 326.620,273.000 326.400 C 272.864 326.180,271.953 326.000,270.976 326.000 C 269.999 326.000,269.200 325.820,269.200 325.600 C 269.200 325.380,268.581 325.200,267.824 325.200 C 267.067 325.200,266.336 325.020,266.200 324.800 C 266.064 324.580,265.423 324.400,264.776 324.400 C 264.129 324.400,263.600 324.220,263.600 324.000 C 263.600 323.780,263.060 323.600,262.400 323.600 C 261.740 323.600,261.200 323.420,261.200 323.200 C 261.200 322.980,260.761 322.800,260.224 322.800 C 259.687 322.800,259.136 322.620,259.000 322.400 C 258.864 322.180,258.403 322.000,257.976 322.000 C 257.549 322.000,257.200 321.820,257.200 321.600 C 257.200 321.380,256.840 321.200,256.400 321.200 C 255.960 321.200,255.600 321.020,255.600 320.800 C 255.600 320.580,255.347 320.400,255.038 320.400 C 254.372 320.400,251.059 318.732,250.867 318.300 C 250.793 318.135,250.388 318.000,249.967 318.000 C 249.545 318.000,249.200 317.820,249.200 317.600 C 249.200 317.380,248.840 317.200,248.400 317.200 C 247.960 317.200,247.600 317.020,247.600 316.800 C 247.600 316.580,247.364 316.400,247.075 316.400 C 246.787 316.400,246.164 316.040,245.692 315.600 C 245.220 315.160,244.691 314.800,244.517 314.799 C 244.343 314.799,243.570 314.259,242.800 313.600 C 242.030 312.941,241.247 312.401,241.060 312.401 C 240.874 312.400,240.217 311.860,239.600 311.200 C 238.983 310.540,238.293 310.000,238.065 310.000 C 237.495 310.000,227.600 300.146,227.600 299.578 C 227.600 299.327,227.060 298.617,226.400 298.000 C 225.740 297.383,225.200 296.631,225.200 296.328 C 225.200 296.025,224.840 295.517,224.400 295.200 C 223.960 294.883,223.600 294.343,223.600 294.000 C 223.600 293.657,223.240 293.117,222.800 292.800 C 222.360 292.483,222.000 291.903,222.000 291.512 C 222.000 291.120,221.820 290.800,221.600 290.800 C 221.380 290.800,221.200 290.440,221.200 290.000 C 221.200 289.560,221.020 289.200,220.800 289.200 C 220.580 289.200,220.400 288.840,220.400 288.400 C 220.400 287.960,220.220 287.600,220.000 287.600 C 219.780 287.600,219.600 287.240,219.600 286.800 C 219.600 286.360,219.420 286.000,219.200 286.000 C 218.980 286.000,218.800 285.640,218.800 285.200 C 218.800 284.760,218.620 284.400,218.400 284.400 C 218.180 284.400,218.000 284.040,218.000 283.600 C 218.000 283.160,217.820 282.800,217.600 282.800 C 217.380 282.800,217.200 282.361,217.200 281.824 C 217.200 281.287,217.020 280.736,216.800 280.600 C 216.580 280.464,216.400 280.003,216.400 279.576 C 216.400 279.149,216.220 278.800,216.000 278.800 C 215.780 278.800,215.600 278.260,215.600 277.600 C 215.600 276.940,215.420 276.400,215.200 276.400 C 214.980 276.400,214.800 275.871,214.800 275.224 C 214.800 274.577,214.620 273.936,214.400 273.800 C 214.180 273.664,214.000 272.933,214.000 272.176 C 214.000 271.419,213.820 270.800,213.600 270.800 C 213.380 270.800,213.200 270.080,213.200 269.200 C 213.200 268.320,213.020 267.600,212.800 267.600 C 212.580 267.600,212.400 266.700,212.400 265.600 C 212.400 264.500,212.220 263.600,212.000 263.600 C 211.778 263.600,211.600 262.541,211.600 261.224 C 211.600 259.917,211.420 258.736,211.200 258.600 C 210.980 258.464,210.800 256.773,210.800 254.843 C 210.800 248.537,209.378 250.609,208.771 257.800 C 208.566 260.220,208.322 262.650,208.227 263.200 C 208.133 263.750,207.849 265.550,207.597 267.200 C 206.567 273.943,204.500 281.896,202.191 288.006 C 201.404 290.088,200.882 291.324,199.443 294.512 C 198.257 297.140,198.135 298.477,199.000 299.343 C 199.330 299.673,199.600 300.226,199.600 300.571 C 199.600 300.917,199.780 301.200,200.000 301.200 C 200.220 301.200,200.400 301.425,200.401 301.700 C 200.401 301.975,200.941 302.830,201.600 303.600 C 202.259 304.370,202.799 305.225,202.799 305.500 C 202.800 305.775,202.950 306.000,203.132 306.000 C 203.315 306.000,203.719 306.495,204.030 307.100 C 204.340 307.705,204.911 308.491,205.297 308.847 C 205.684 309.203,206.000 309.676,206.000 309.899 C 206.000 310.121,206.720 311.045,207.600 311.952 C 208.480 312.859,209.200 313.770,209.200 313.976 C 209.200 314.491,219.464 324.778,221.200 326.003 C 221.970 326.547,223.122 327.488,223.759 328.096 C 224.397 328.703,225.122 329.200,225.371 329.200 C 225.620 329.200,226.083 329.560,226.400 330.000 C 226.717 330.440,227.173 330.800,227.413 330.800 C 227.653 330.800,228.198 331.115,228.625 331.500 C 229.051 331.885,229.895 332.455,230.500 332.768 C 231.105 333.080,231.600 333.485,231.600 333.668 C 231.600 333.850,231.945 334.000,232.367 334.000 C 232.788 334.000,233.193 334.135,233.267 334.300 C 233.434 334.676,235.564 335.975,236.500 336.271 C 236.885 336.393,237.200 336.652,237.200 336.847 C 237.200 337.041,237.560 337.200,238.000 337.200 C 238.440 337.200,238.800 337.380,238.800 337.600 C 238.800 337.820,239.160 338.000,239.600 338.000 C 240.040 338.000,240.400 338.180,240.400 338.400 C 240.400 338.620,240.665 338.800,240.988 338.800 C 241.311 338.800,242.217 339.160,243.000 339.600 C 243.783 340.040,244.779 340.400,245.212 340.400 C 245.645 340.400,246.000 340.580,246.000 340.800 C 246.000 341.020,246.349 341.200,246.776 341.200 C 247.203 341.200,247.664 341.380,247.800 341.600 C 247.936 341.820,248.487 342.000,249.024 342.000 C 249.561 342.000,250.000 342.180,250.000 342.400 C 250.000 342.620,250.439 342.800,250.976 342.800 C 251.513 342.800,252.064 342.980,252.200 343.200 C 252.336 343.420,252.876 343.600,253.400 343.600 C 253.924 343.600,254.464 343.780,254.600 344.000 C 254.736 344.220,255.377 344.400,256.024 344.400 C 256.671 344.400,257.200 344.580,257.200 344.800 C 257.200 345.020,257.729 345.200,258.376 345.200 C 259.023 345.200,259.664 345.380,259.800 345.600 C 259.936 345.820,260.656 346.000,261.400 346.000 C 262.144 346.000,262.864 346.180,263.000 346.400 C 263.136 346.620,264.047 346.800,265.024 346.800 C 266.001 346.800,266.800 346.980,266.800 347.200 C 266.800 347.422,267.867 347.600,269.200 347.600 C 270.533 347.600,271.600 347.778,271.600 348.000 C 271.600 348.237,273.067 348.400,275.200 348.400 C 277.333 348.400,278.800 348.563,278.800 348.800 C 278.800 349.056,282.259 349.200,288.376 349.200 C 294.329 349.200,298.046 349.049,298.200 348.800 C 298.336 348.580,300.046 348.400,302.000 348.400 C 303.954 348.400,305.664 348.220,305.800 348.000 C 305.936 347.780,307.117 347.600,308.424 347.600 C 309.741 347.600,310.800 347.422,310.800 347.200 C 310.800 346.980,311.599 346.800,312.576 346.800 C 313.553 346.800,314.464 346.620,314.600 346.400 C 314.736 346.180,315.456 346.000,316.200 346.000 C 316.944 346.000,317.664 345.820,317.800 345.600 C 317.936 345.380,318.577 345.200,319.224 345.200 C 319.871 345.200,320.400 345.020,320.400 344.800 C 320.400 344.580,320.940 344.400,321.600 344.400 C 322.260 344.400,322.800 344.220,322.800 344.000 C 322.800 343.780,323.340 343.600,324.000 343.600 C 324.660 343.600,325.200 343.420,325.200 343.200 C 325.200 342.980,325.639 342.800,326.176 342.800 C 326.713 342.800,327.264 342.620,327.400 342.400 C 327.536 342.180,327.997 342.000,328.424 342.000 C 328.851 342.000,329.200 341.820,329.200 341.600 C 329.200 341.380,329.560 341.200,330.000 341.200 C 330.440 341.200,330.800 341.020,330.800 340.800 C 330.800 340.580,331.160 340.400,331.600 340.400 C 332.040 340.400,332.400 340.220,332.400 340.000 C 332.400 339.780,332.760 339.600,333.200 339.600 C 333.640 339.600,334.000 339.420,334.000 339.200 C 334.000 338.980,334.360 338.800,334.800 338.800 C 335.240 338.800,335.600 338.620,335.600 338.400 C 335.600 338.180,335.960 338.000,336.400 338.000 C 336.840 338.000,337.200 337.850,337.200 337.668 C 337.200 337.485,337.695 337.080,338.300 336.768 C 338.905 336.455,339.749 335.885,340.175 335.500 C 340.602 335.115,341.147 334.800,341.387 334.800 C 341.627 334.800,342.083 334.440,342.400 334.000 C 342.717 333.560,343.209 333.200,343.492 333.200 C 343.775 333.200,344.572 332.660,345.263 332.000 C 345.954 331.340,346.690 330.800,346.899 330.800 C 347.108 330.800,347.756 330.298,348.340 329.685 C 348.923 329.071,350.030 328.127,350.800 327.588 C 352.593 326.331,359.101 319.830,360.399 318.000 C 360.945 317.230,361.888 316.078,362.496 315.441 C 363.103 314.803,363.600 314.078,363.600 313.829 C 363.600 313.580,363.960 313.117,364.400 312.800 C 364.840 312.483,365.200 311.943,365.200 311.600 C 365.200 311.257,365.560 310.717,366.000 310.400 C 366.440 310.083,366.800 309.503,366.800 309.112 C 366.800 308.720,366.980 308.400,367.200 308.400 C 367.451 308.400,367.600 310.992,367.600 315.376 C 367.600 319.596,367.758 322.450,368.000 322.600 C 368.227 322.740,368.400 324.730,368.400 327.200 C 368.400 329.670,368.573 331.660,368.800 331.800 C 369.020 331.936,369.200 333.027,369.200 334.224 C 369.200 335.421,369.380 336.400,369.600 336.400 C 369.820 336.400,370.000 337.120,370.000 338.000 C 370.000 338.880,370.180 339.600,370.400 339.600 C 370.620 339.600,370.800 340.140,370.800 340.800 C 370.800 341.460,370.980 342.000,371.200 342.000 C 371.420 342.000,371.600 342.540,371.600 343.200 L 371.600 344.400 384.000 344.400 C 397.646 344.400,397.251 344.479,396.000 341.995 C 395.780 341.558,395.420 340.842,395.200 340.405 C 394.980 339.968,394.800 339.259,394.800 338.829 C 394.800 338.399,394.620 337.936,394.400 337.800 C 394.180 337.664,394.000 336.933,394.000 336.176 C 394.000 335.419,393.820 334.800,393.600 334.800 C 393.380 334.800,393.200 334.001,393.200 333.024 C 393.200 332.047,393.020 331.136,392.800 331.000 C 392.578 330.863,392.400 329.023,392.400 326.856 C 392.400 324.713,392.223 322.783,392.006 322.566 C 391.749 322.309,391.546 278.805,391.423 197.986 C 391.320 129.684,391.225 72.630,391.212 71.200 C 391.169 66.608,391.639 59.812,392.025 59.420 C 392.231 59.211,392.400 58.743,392.400 58.379 C 392.400 58.016,392.940 57.154,393.600 56.463 C 394.636 55.379,394.800 54.906,394.800 53.004 L 394.800 50.800 381.600 50.800 L 368.400 50.800 368.400 115.600 " stroke="none" fill="#040404" fill-rule="evenodd"></path><path id="path1" d="M3.600 197.600 L 3.600 344.400 12.000 344.400 L 20.400 344.400 20.400 342.400 C 20.400 341.300,20.580 340.400,20.800 340.400 C 21.020 340.400,21.200 339.511,21.200 338.424 C 21.200 337.337,21.380 336.336,21.600 336.200 C 21.820 336.064,22.000 335.164,22.000 334.200 C 22.000 333.236,22.180 332.336,22.400 332.200 C 22.620 332.064,22.800 331.074,22.800 330.000 C 22.800 328.926,22.980 327.936,23.200 327.800 C 23.420 327.664,23.600 326.663,23.600 325.576 C 23.600 324.489,23.780 323.600,24.000 323.600 C 24.220 323.600,24.400 322.700,24.400 321.600 C 24.400 320.500,24.580 319.600,24.800 319.600 C 25.020 319.600,25.200 318.711,25.200 317.624 C 25.200 316.537,25.380 315.536,25.600 315.400 C 25.820 315.264,26.000 314.274,26.000 313.200 C 26.000 312.126,26.180 311.136,26.400 311.000 C 26.620 310.864,26.800 310.043,26.800 309.176 C 26.800 308.309,26.980 307.600,27.200 307.600 C 27.420 307.600,27.600 307.920,27.600 308.312 C 27.600 308.703,27.960 309.283,28.400 309.600 C 28.840 309.917,29.200 310.457,29.200 310.800 C 29.200 311.143,29.560 311.683,30.000 312.000 C 30.440 312.317,30.800 312.785,30.800 313.040 C 30.800 313.295,31.520 314.245,32.400 315.152 C 33.280 316.059,34.000 316.948,34.000 317.129 C 34.000 317.629,40.412 324.100,42.000 325.202 C 42.770 325.737,44.061 326.855,44.869 327.687 C 45.676 328.519,46.533 329.200,46.772 329.200 C 47.012 329.200,47.772 329.740,48.463 330.400 C 49.154 331.060,49.922 331.600,50.171 331.600 C 50.420 331.600,50.883 331.960,51.200 332.400 C 51.517 332.840,51.973 333.200,52.213 333.200 C 52.453 333.200,53.007 333.515,53.445 333.900 C 53.883 334.285,54.637 334.825,55.120 335.100 C 55.604 335.375,56.396 335.825,56.880 336.100 C 57.363 336.375,58.117 336.915,58.555 337.300 C 58.993 337.685,59.587 338.000,59.875 338.000 C 60.164 338.000,60.400 338.180,60.400 338.400 C 60.400 338.620,60.760 338.800,61.200 338.800 C 61.640 338.800,62.000 338.980,62.000 339.200 C 62.000 339.420,62.360 339.600,62.800 339.600 C 63.240 339.600,63.600 339.780,63.600 340.000 C 63.600 340.220,63.960 340.400,64.400 340.400 C 64.840 340.400,65.200 340.580,65.200 340.800 C 65.200 341.020,65.549 341.200,65.976 341.200 C 66.403 341.200,66.864 341.380,67.000 341.600 C 67.136 341.820,67.687 342.000,68.224 342.000 C 68.761 342.000,69.200 342.180,69.200 342.400 C 69.200 342.620,69.560 342.800,70.000 342.800 C 70.440 342.800,70.800 342.980,70.800 343.200 C 70.800 343.420,71.340 343.600,72.000 343.600 C 72.660 343.600,73.200 343.780,73.200 344.000 C 73.200 344.220,73.740 344.400,74.400 344.400 C 75.060 344.400,75.600 344.580,75.600 344.800 C 75.600 345.020,76.129 345.200,76.776 345.200 C 77.423 345.200,78.064 345.380,78.200 345.600 C 78.336 345.820,79.067 346.000,79.824 346.000 C 80.581 346.000,81.200 346.180,81.200 346.400 C 81.200 346.620,81.909 346.800,82.776 346.800 C 83.643 346.800,84.464 346.980,84.600 347.200 C 84.736 347.420,85.726 347.600,86.800 347.600 C 87.874 347.600,88.864 347.780,89.000 348.000 C 89.136 348.220,90.396 348.400,91.800 348.400 C 93.204 348.400,94.464 348.580,94.600 348.800 C 94.747 349.039,97.330 349.200,101.000 349.200 C 104.670 349.200,107.253 349.361,107.400 349.600 C 107.536 349.820,108.256 350.000,109.000 350.000 C 109.744 350.000,110.464 349.820,110.600 349.600 C 110.747 349.362,113.263 349.200,116.800 349.200 C 120.337 349.200,122.853 349.038,123.000 348.800 C 123.136 348.580,124.396 348.400,125.800 348.400 C 127.204 348.400,128.464 348.220,128.600 348.000 C 128.736 347.780,129.647 347.600,130.624 347.600 C 131.601 347.600,132.400 347.420,132.400 347.200 C 132.400 346.980,133.199 346.800,134.176 346.800 C 135.153 346.800,136.064 346.620,136.200 346.400 C 136.336 346.180,136.966 346.000,137.600 346.000 C 138.234 346.000,138.864 345.820,139.000 345.600 C 139.136 345.380,139.867 345.200,140.624 345.200 C 141.381 345.200,142.000 345.020,142.000 344.800 C 142.000 344.580,142.540 344.400,143.200 344.400 C 143.860 344.400,144.400 344.220,144.400 344.000 C 144.400 343.780,144.940 343.600,145.600 343.600 C 146.260 343.600,146.800 343.420,146.800 343.200 C 146.800 342.980,147.072 342.800,147.405 342.800 C 147.738 342.800,148.323 342.641,148.705 342.447 C 149.421 342.083,151.046 341.389,152.800 340.700 C 153.350 340.484,154.113 340.148,154.495 339.953 C 154.877 339.759,155.462 339.600,155.795 339.600 C 156.128 339.600,156.400 339.420,156.400 339.200 C 156.400 338.980,156.760 338.800,157.200 338.800 C 157.640 338.800,158.000 338.620,158.000 338.400 C 158.000 338.180,158.360 338.000,158.800 338.000 C 159.240 338.000,159.600 337.820,159.600 337.600 C 159.600 337.380,159.960 337.200,160.400 337.200 C 160.840 337.200,161.200 337.041,161.200 336.847 C 161.200 336.652,161.515 336.393,161.900 336.271 C 162.587 336.054,164.806 334.795,165.200 334.399 C 165.310 334.289,165.895 333.944,166.500 333.632 C 167.105 333.320,167.600 332.915,167.600 332.732 C 167.600 332.550,167.872 332.400,168.204 332.400 C 168.536 332.400,169.372 331.860,170.063 331.200 C 170.754 330.540,171.490 330.000,171.699 330.000 C 171.908 330.000,172.583 329.460,173.200 328.800 C 173.817 328.140,174.508 327.600,174.736 327.600 C 175.280 327.600,185.524 317.413,186.803 315.600 C 187.347 314.830,188.288 313.678,188.896 313.041 C 189.503 312.403,190.000 311.726,190.000 311.537 C 190.000 311.348,190.540 310.628,191.200 309.937 C 191.860 309.246,192.400 308.438,192.400 308.141 C 192.400 307.843,192.550 307.600,192.732 307.600 C 192.915 307.600,193.320 307.105,193.632 306.500 C 193.945 305.895,194.515 305.051,194.900 304.625 C 195.285 304.198,195.600 303.613,195.600 303.325 C 195.600 303.036,195.780 302.800,196.000 302.800 C 196.220 302.800,196.400 302.455,196.400 302.033 C 196.400 301.612,196.535 301.207,196.700 301.133 C 197.231 300.897,198.400 298.503,198.400 297.650 C 198.400 297.196,198.869 295.783,199.443 294.512 C 200.882 291.324,201.404 290.088,202.191 288.006 C 204.500 281.896,206.567 273.943,207.597 267.200 C 207.849 265.550,208.133 263.750,208.227 263.200 C 208.322 262.650,208.566 260.187,208.771 257.727 C 208.975 255.267,209.336 252.894,209.571 252.453 C 210.192 251.293,210.159 232.120,209.535 231.912 C 209.263 231.821,208.941 230.281,208.757 228.178 C 208.407 224.197,207.839 220.121,207.172 216.800 C 206.929 215.590,206.584 213.880,206.407 213.000 C 205.878 210.379,204.863 206.857,203.351 202.400 C 201.958 198.293,201.296 196.658,199.381 192.600 C 198.862 191.500,198.320 190.060,198.177 189.400 C 197.817 187.734,197.064 186.000,196.702 186.000 C 196.536 186.000,196.400 185.640,196.400 185.200 C 196.400 184.760,196.220 184.400,196.000 184.400 C 195.780 184.400,195.600 184.164,195.600 183.875 C 195.600 183.587,195.240 182.964,194.800 182.492 C 194.360 182.020,194.000 181.396,194.000 181.105 C 194.000 180.814,193.640 180.317,193.200 180.000 C 192.760 179.683,192.400 179.238,192.399 179.012 C 192.399 178.785,191.859 177.970,191.200 177.200 C 190.541 176.430,190.001 175.665,190.001 175.500 C 190.000 175.336,189.280 174.459,188.400 173.552 C 187.520 172.645,186.800 171.739,186.800 171.538 C 186.800 171.084,176.881 161.200,176.426 161.200 C 176.245 161.200,175.355 160.480,174.448 159.600 C 173.541 158.720,172.569 158.000,172.288 158.000 C 172.007 158.000,171.517 157.640,171.200 157.200 C 170.883 156.760,170.438 156.400,170.212 156.399 C 169.985 156.399,169.170 155.859,168.400 155.200 C 167.630 154.541,166.775 154.001,166.500 154.001 C 166.225 154.000,166.000 153.820,166.000 153.600 C 166.000 153.380,165.640 153.200,165.200 153.200 C 164.760 153.200,164.400 153.020,164.400 152.800 C 164.400 152.580,164.164 152.400,163.875 152.400 C 163.587 152.400,162.964 152.040,162.492 151.600 C 162.020 151.160,161.356 150.800,161.017 150.800 C 160.678 150.800,160.400 150.620,160.400 150.400 C 160.400 150.180,160.040 150.000,159.600 150.000 C 159.160 150.000,158.800 149.820,158.800 149.600 C 158.800 149.380,158.440 149.200,158.000 149.200 C 157.560 149.200,157.200 149.020,157.200 148.800 C 157.200 148.580,156.851 148.400,156.424 148.400 C 155.997 148.400,155.536 148.220,155.400 148.000 C 155.264 147.780,154.713 147.600,154.176 147.600 C 153.639 147.600,153.200 147.420,153.200 147.200 C 153.200 146.980,152.840 146.800,152.400 146.800 C 151.960 146.800,151.600 146.620,151.600 146.400 C 151.600 146.180,151.238 146.000,150.795 146.000 C 150.352 146.000,149.587 145.792,149.095 145.538 C 147.174 144.544,146.784 144.400,146.029 144.400 C 145.599 144.400,145.136 144.220,145.000 144.000 C 144.864 143.780,144.234 143.600,143.600 143.600 C 142.966 143.600,142.336 143.420,142.200 143.200 C 142.064 142.980,141.434 142.800,140.800 142.800 C 140.166 142.800,139.536 142.620,139.400 142.400 C 139.264 142.180,138.544 142.000,137.800 142.000 C 137.056 142.000,136.336 141.820,136.200 141.600 C 136.064 141.380,135.164 141.200,134.200 141.200 C 133.236 141.200,132.336 141.020,132.200 140.800 C 132.064 140.580,130.793 140.400,129.376 140.400 C 127.925 140.400,126.800 140.225,126.800 140.000 C 126.800 139.757,125.008 139.600,122.224 139.600 C 119.604 139.600,117.542 139.429,117.400 139.200 C 117.072 138.669,107.328 138.669,107.000 139.200 C 106.859 139.429,104.804 139.600,102.200 139.600 C 99.596 139.600,97.541 139.771,97.400 140.000 C 97.264 140.220,96.094 140.400,94.800 140.400 C 93.506 140.400,92.336 140.580,92.200 140.800 C 92.064 141.020,91.153 141.200,90.176 141.200 C 89.199 141.200,88.400 141.380,88.400 141.600 C 88.400 141.820,87.601 142.000,86.624 142.000 C 85.647 142.000,84.736 142.180,84.600 142.400 C 84.464 142.620,83.823 142.800,83.176 142.800 C 82.529 142.800,82.000 142.980,82.000 143.200 C 82.000 143.420,81.381 143.600,80.624 143.600 C 79.867 143.600,79.136 143.780,79.000 144.000 C 78.864 144.220,78.401 144.400,77.971 144.400 C 77.541 144.400,76.832 144.580,76.395 144.800 C 75.958 145.020,75.242 145.380,74.805 145.600 C 74.368 145.820,73.648 146.000,73.205 146.000 C 72.762 146.000,72.400 146.180,72.400 146.400 C 72.400 146.620,71.961 146.800,71.424 146.800 C 70.887 146.800,70.336 146.980,70.200 147.200 C 70.064 147.420,69.603 147.600,69.176 147.600 C 68.749 147.600,68.400 147.780,68.400 148.000 C 68.400 148.220,68.040 148.400,67.600 148.400 C 67.160 148.400,66.800 148.580,66.800 148.800 C 66.800 149.020,66.440 149.200,66.000 149.200 C 65.560 149.200,65.200 149.380,65.200 149.600 C 65.200 149.820,64.840 150.000,64.400 150.000 C 63.960 150.000,63.600 150.180,63.600 150.400 C 63.600 150.620,63.240 150.800,62.800 150.800 C 62.360 150.800,62.000 150.980,62.000 151.200 C 62.000 151.420,61.640 151.600,61.200 151.600 C 60.760 151.600,60.400 151.780,60.400 152.000 C 60.400 152.220,60.040 152.400,59.600 152.400 C 59.160 152.400,58.800 152.580,58.800 152.800 C 58.800 153.020,58.440 153.200,58.000 153.200 C 57.560 153.200,57.200 153.380,57.200 153.600 C 57.200 153.820,56.964 154.000,56.675 154.000 C 56.387 154.000,55.764 154.360,55.292 154.800 C 54.820 155.240,54.222 155.600,53.964 155.600 C 53.705 155.600,53.203 155.916,52.847 156.303 C 52.491 156.689,51.705 157.260,51.100 157.570 C 50.495 157.881,50.000 158.285,50.000 158.468 C 50.000 158.650,49.712 158.800,49.360 158.800 C 49.009 158.800,48.217 159.340,47.600 160.000 C 46.983 160.660,46.277 161.200,46.030 161.200 C 45.466 161.200,33.200 173.432,33.200 173.994 C 33.200 174.221,32.660 174.972,32.000 175.663 C 31.340 176.354,30.800 177.122,30.800 177.371 C 30.800 177.620,30.440 178.083,30.000 178.400 C 29.560 178.717,29.200 179.297,29.200 179.688 C 29.200 180.080,29.041 180.400,28.847 180.400 C 28.652 180.400,28.339 180.805,28.150 181.300 C 27.956 181.809,27.762 157.114,27.702 124.421 C 27.633 86.165,27.733 66.507,27.999 66.241 C 28.219 66.021,28.400 64.357,28.400 62.544 C 28.400 60.731,28.580 59.136,28.800 59.000 C 29.020 58.864,29.200 58.476,29.200 58.137 C 29.200 57.798,29.740 57.017,30.400 56.400 C 31.457 55.413,31.600 55.012,31.600 53.040 L 31.600 50.800 17.600 50.800 L 3.600 50.800 3.600 197.600 M120.580 160.828 C 120.789 161.033,121.914 161.200,123.080 161.200 C 124.246 161.200,125.200 161.380,125.200 161.600 C 125.200 161.820,125.909 162.000,126.776 162.000 C 127.643 162.000,128.464 162.180,128.600 162.400 C 128.736 162.620,129.456 162.800,130.200 162.800 C 130.944 162.800,131.664 162.980,131.800 163.200 C 131.936 163.420,132.487 163.600,133.024 163.600 C 133.561 163.600,134.000 163.780,134.000 164.000 C 134.000 164.220,134.529 164.400,135.176 164.400 C 135.823 164.400,136.464 164.580,136.600 164.800 C 136.736 165.020,137.287 165.200,137.824 165.200 C 138.361 165.200,138.800 165.380,138.800 165.600 C 138.800 165.820,139.160 166.000,139.600 166.000 C 140.040 166.000,140.400 166.180,140.400 166.400 C 140.400 166.620,140.645 166.800,140.944 166.800 C 141.601 166.800,146.545 169.276,146.733 169.700 C 146.807 169.865,147.212 170.000,147.633 170.000 C 148.055 170.000,148.400 170.180,148.400 170.400 C 148.400 170.620,148.636 170.800,148.925 170.800 C 149.213 170.800,149.836 171.160,150.308 171.600 C 150.780 172.040,151.404 172.400,151.695 172.400 C 151.986 172.400,152.483 172.760,152.800 173.200 C 153.117 173.640,153.607 174.000,153.888 174.000 C 154.169 174.000,155.141 174.720,156.048 175.600 C 156.955 176.480,157.857 177.200,158.053 177.200 C 158.518 177.200,166.800 185.482,166.800 185.947 C 166.800 186.143,167.520 187.045,168.400 187.952 C 169.280 188.859,170.000 189.805,170.000 190.054 C 170.000 190.302,170.316 190.797,170.703 191.153 C 171.089 191.509,171.660 192.295,171.970 192.900 C 172.281 193.505,172.685 194.000,172.868 194.000 C 173.050 194.000,173.200 194.278,173.200 194.617 C 173.200 194.956,173.560 195.620,174.000 196.092 C 174.440 196.564,174.800 197.187,174.800 197.475 C 174.800 197.764,174.980 198.000,175.200 198.000 C 175.420 198.000,175.600 198.360,175.600 198.800 C 175.600 199.240,175.780 199.600,176.000 199.600 C 176.220 199.600,176.400 199.960,176.400 200.400 C 176.400 200.840,176.580 201.200,176.800 201.200 C 177.020 201.200,177.200 201.560,177.200 202.000 C 177.200 202.440,177.380 202.800,177.600 202.800 C 177.820 202.800,178.000 203.160,178.000 203.600 C 178.000 204.040,178.180 204.400,178.400 204.400 C 178.620 204.400,178.800 204.839,178.800 205.376 C 178.800 205.913,178.980 206.464,179.200 206.600 C 179.420 206.736,179.600 207.197,179.600 207.624 C 179.600 208.051,179.780 208.400,180.000 208.400 C 180.220 208.400,180.400 208.940,180.400 209.600 C 180.400 210.260,180.580 210.800,180.800 210.800 C 181.020 210.800,181.200 211.340,181.200 212.000 C 181.200 212.660,181.380 213.200,181.600 213.200 C 181.820 213.200,182.000 213.920,182.000 214.800 C 182.000 215.680,182.180 216.400,182.400 216.400 C 182.620 216.400,182.800 217.120,182.800 218.000 C 182.800 218.880,182.980 219.600,183.200 219.600 C 183.420 219.600,183.600 220.489,183.600 221.576 C 183.600 222.663,183.780 223.664,184.000 223.800 C 184.220 223.936,184.400 225.286,184.400 226.800 C 184.400 228.314,184.580 229.664,184.800 229.800 C 185.037 229.947,185.200 232.444,185.200 235.944 C 185.200 239.741,185.359 241.999,185.645 242.285 C 185.931 242.571,185.988 243.354,185.804 244.465 C 185.646 245.419,185.437 249.215,185.340 252.900 C 185.238 256.763,185.002 259.600,184.782 259.600 C 184.572 259.600,184.400 260.849,184.400 262.376 C 184.400 263.903,184.220 265.264,184.000 265.400 C 183.780 265.536,183.600 266.526,183.600 267.600 C 183.600 268.674,183.420 269.664,183.200 269.800 C 182.980 269.936,182.800 270.746,182.800 271.600 C 182.800 272.454,182.620 273.264,182.400 273.400 C 182.180 273.536,182.000 274.267,182.000 275.024 C 182.000 275.781,181.820 276.400,181.600 276.400 C 181.380 276.400,181.200 276.929,181.200 277.576 C 181.200 278.223,181.020 278.864,180.800 279.000 C 180.580 279.136,180.400 279.687,180.400 280.224 C 180.400 280.761,180.220 281.200,180.000 281.200 C 179.780 281.200,179.600 281.740,179.600 282.400 C 179.600 283.060,179.420 283.600,179.200 283.600 C 178.980 283.600,178.800 283.853,178.800 284.162 C 178.800 284.710,177.682 287.186,176.525 289.200 C 176.209 289.750,175.851 290.515,175.729 290.900 C 175.607 291.285,175.348 291.600,175.153 291.600 C 174.959 291.600,174.800 291.960,174.800 292.400 C 174.800 292.840,174.620 293.200,174.400 293.200 C 174.180 293.200,174.000 293.520,174.000 293.912 C 174.000 294.303,173.640 294.883,173.200 295.200 C 172.760 295.517,172.400 296.057,172.400 296.400 C 172.400 296.743,172.040 297.283,171.600 297.600 C 171.160 297.917,170.800 298.431,170.800 298.741 C 170.800 299.052,170.476 299.597,170.081 299.953 C 169.686 300.309,168.922 301.230,168.384 302.000 C 167.269 303.595,158.567 312.400,158.104 312.401 C 157.937 312.401,157.170 312.941,156.400 313.600 C 155.630 314.259,154.815 314.799,154.588 314.799 C 154.362 314.800,153.917 315.160,153.600 315.600 C 153.283 316.040,152.703 316.400,152.312 316.400 C 151.920 316.400,151.599 316.535,151.597 316.700 C 151.595 316.865,151.190 317.199,150.697 317.441 C 150.204 317.684,148.747 318.449,147.459 319.141 C 146.172 319.834,144.777 320.400,144.359 320.400 C 143.942 320.400,143.600 320.580,143.600 320.800 C 143.600 321.020,143.240 321.200,142.800 321.200 C 142.360 321.200,142.000 321.380,142.000 321.600 C 142.000 321.820,141.561 322.000,141.024 322.000 C 140.487 322.000,139.936 322.180,139.800 322.400 C 139.664 322.620,139.124 322.800,138.600 322.800 C 138.076 322.800,137.536 322.980,137.400 323.200 C 137.264 323.420,136.724 323.600,136.200 323.600 C 135.676 323.600,135.136 323.780,135.000 324.000 C 134.864 324.220,134.223 324.400,133.576 324.400 C 132.929 324.400,132.400 324.580,132.400 324.800 C 132.400 325.020,131.781 325.200,131.024 325.200 C 130.267 325.200,129.536 325.380,129.400 325.600 C 129.264 325.820,128.443 326.000,127.576 326.000 C 126.709 326.000,126.000 326.180,126.000 326.400 C 126.000 326.620,125.021 326.800,123.824 326.800 C 122.627 326.800,121.536 326.980,121.400 327.200 C 121.264 327.420,119.644 327.600,117.800 327.600 C 115.956 327.600,114.336 327.780,114.200 328.000 C 114.052 328.239,111.404 328.400,107.600 328.400 C 103.796 328.400,101.148 328.239,101.000 328.000 C 100.864 327.779,99.070 327.600,97.000 327.600 C 94.930 327.600,93.136 327.421,93.000 327.200 C 92.864 326.980,91.773 326.800,90.576 326.800 C 89.379 326.800,88.400 326.620,88.400 326.400 C 88.400 326.180,87.601 326.000,86.624 326.000 C 85.647 326.000,84.736 325.820,84.600 325.600 C 84.464 325.380,83.643 325.200,82.776 325.200 C 81.909 325.200,81.200 325.020,81.200 324.800 C 81.200 324.580,80.660 324.400,80.000 324.400 C 79.340 324.400,78.800 324.220,78.800 324.000 C 78.800 323.780,78.260 323.600,77.600 323.600 C 76.940 323.600,76.400 323.420,76.400 323.200 C 76.400 322.980,75.860 322.800,75.200 322.800 C 74.540 322.800,74.000 322.620,74.000 322.400 C 74.000 322.180,73.561 322.000,73.024 322.000 C 72.487 322.000,71.936 321.820,71.800 321.600 C 71.664 321.380,71.203 321.200,70.776 321.200 C 70.349 321.200,70.000 321.020,70.000 320.800 C 70.000 320.580,69.640 320.400,69.200 320.400 C 68.760 320.400,68.400 320.220,68.400 320.000 C 68.400 319.780,68.040 319.600,67.600 319.600 C 67.160 319.600,66.800 319.420,66.800 319.200 C 66.800 318.980,66.440 318.800,66.000 318.800 C 65.560 318.800,65.200 318.620,65.200 318.400 C 65.200 318.180,64.840 318.000,64.400 318.000 C 63.960 318.000,63.600 317.820,63.600 317.600 C 63.600 317.380,63.322 317.200,62.983 317.200 C 62.644 317.200,61.980 316.840,61.508 316.400 C 61.036 315.960,60.413 315.600,60.125 315.600 C 59.836 315.600,59.600 315.450,59.600 315.268 C 59.600 315.085,59.108 314.680,58.507 314.368 C 57.906 314.055,56.889 313.305,56.248 312.700 C 55.606 312.095,54.926 311.600,54.736 311.600 C 54.244 311.600,46.388 303.678,45.216 302.000 C 44.678 301.230,43.914 300.309,43.519 299.953 C 43.124 299.597,42.800 299.136,42.800 298.929 C 42.800 298.721,42.485 298.202,42.100 297.775 C 41.715 297.349,41.145 296.505,40.832 295.900 C 40.520 295.295,40.115 294.800,39.932 294.800 C 39.750 294.800,39.600 294.440,39.600 294.000 C 39.600 293.560,39.441 293.200,39.247 293.200 C 39.052 293.200,38.793 292.885,38.671 292.500 C 38.375 291.564,37.076 289.434,36.700 289.267 C 36.535 289.193,36.400 288.876,36.400 288.561 C 36.400 288.247,36.220 287.632,36.000 287.195 C 35.780 286.758,35.420 286.042,35.200 285.605 C 34.980 285.168,34.800 284.538,34.800 284.205 C 34.800 283.872,34.620 283.600,34.400 283.600 C 34.180 283.600,34.000 283.161,34.000 282.624 C 34.000 282.087,33.820 281.536,33.600 281.400 C 33.380 281.264,33.200 280.724,33.200 280.200 C 33.200 279.676,33.020 279.136,32.800 279.000 C 32.580 278.864,32.400 278.223,32.400 277.576 C 32.400 276.929,32.220 276.400,32.000 276.400 C 31.780 276.400,31.600 275.781,31.600 275.024 C 31.600 274.267,31.420 273.536,31.200 273.400 C 30.980 273.264,30.800 272.443,30.800 271.576 C 30.800 270.709,30.620 270.000,30.400 270.000 C 30.180 270.000,30.000 269.201,30.000 268.224 C 30.000 267.247,29.820 266.336,29.600 266.200 C 29.380 266.064,29.200 264.714,29.200 263.200 C 29.200 261.686,29.020 260.336,28.800 260.200 C 28.561 260.052,28.400 257.404,28.400 253.600 C 28.400 249.796,28.239 247.148,28.000 247.000 C 27.479 246.678,27.479 243.322,28.000 243.000 C 28.239 242.853,28.400 240.270,28.400 236.600 C 28.400 232.930,28.561 230.347,28.800 230.200 C 29.020 230.064,29.200 228.703,29.200 227.176 C 29.200 225.592,29.372 224.400,29.600 224.400 C 29.820 224.400,30.000 223.601,30.000 222.624 C 30.000 221.647,30.180 220.736,30.400 220.600 C 30.620 220.464,30.800 219.654,30.800 218.800 C 30.800 217.946,30.980 217.136,31.200 217.000 C 31.420 216.864,31.600 216.234,31.600 215.600 C 31.600 214.966,31.780 214.336,32.000 214.200 C 32.220 214.064,32.400 213.423,32.400 212.776 C 32.400 212.129,32.580 211.600,32.800 211.600 C 33.020 211.600,33.200 211.060,33.200 210.400 C 33.200 209.740,33.380 209.200,33.600 209.200 C 33.820 209.200,34.000 208.851,34.000 208.424 C 34.000 207.997,34.180 207.536,34.400 207.400 C 34.620 207.264,34.800 206.713,34.800 206.176 C 34.800 205.639,34.980 205.200,35.200 205.200 C 35.420 205.200,35.600 204.840,35.600 204.400 C 35.600 203.960,35.780 203.600,36.000 203.600 C 36.220 203.600,36.400 203.366,36.400 203.080 C 36.400 202.344,37.341 200.407,37.700 200.403 C 37.865 200.401,38.000 200.040,38.000 199.600 C 38.000 199.160,38.180 198.800,38.400 198.800 C 38.620 198.800,38.800 198.564,38.800 198.275 C 38.800 197.987,39.160 197.364,39.600 196.892 C 40.040 196.420,40.400 195.796,40.400 195.505 C 40.400 195.214,40.760 194.717,41.200 194.400 C 41.640 194.083,42.000 193.591,42.000 193.308 C 42.000 193.025,42.540 192.228,43.200 191.537 C 43.860 190.846,44.400 190.110,44.400 189.901 C 44.400 189.692,44.902 189.044,45.515 188.460 C 46.129 187.877,47.072 186.770,47.611 186.000 C 48.783 184.327,53.444 179.600,53.922 179.600 C 54.107 179.600,55.222 178.700,56.400 177.600 C 57.578 176.500,58.740 175.600,58.982 175.600 C 59.225 175.600,59.683 175.240,60.000 174.800 C 60.317 174.360,60.831 174.000,61.141 174.000 C 61.452 174.000,61.997 173.685,62.353 173.300 C 62.927 172.679,64.802 171.563,67.497 170.240 C 67.990 169.998,68.395 169.665,68.397 169.500 C 68.399 169.335,68.760 169.200,69.200 169.200 C 69.640 169.200,70.000 169.020,70.000 168.800 C 70.000 168.580,70.272 168.400,70.605 168.400 C 70.938 168.400,71.568 168.220,72.005 168.000 C 72.442 167.780,73.158 167.420,73.595 167.200 C 74.032 166.980,74.662 166.800,74.995 166.800 C 75.328 166.800,75.600 166.620,75.600 166.400 C 75.600 166.180,76.039 166.000,76.576 166.000 C 77.113 166.000,77.664 165.820,77.800 165.600 C 77.936 165.380,78.476 165.200,79.000 165.200 C 79.524 165.200,80.064 165.020,80.200 164.800 C 80.336 164.580,80.876 164.400,81.400 164.400 C 81.924 164.400,82.464 164.220,82.600 164.000 C 82.736 163.780,83.377 163.600,84.024 163.600 C 84.671 163.600,85.200 163.420,85.200 163.200 C 85.200 162.980,85.920 162.800,86.800 162.800 C 87.680 162.800,88.400 162.620,88.400 162.400 C 88.400 162.180,89.300 162.000,90.400 162.000 C 91.500 162.000,92.400 161.820,92.400 161.600 C 92.400 161.378,93.467 161.200,94.800 161.200 C 96.120 161.200,97.200 161.025,97.200 160.811 C 97.200 160.065,119.818 160.082,120.580 160.828 " stroke="none" fill="#e48b04" fill-rule="evenodd"></path></g></svg>